<svg xmlns="http://www.w3.org/2000/svg" width="24" height="24" fill="none"><path fill="#0C3B97" d="M6.67 4c-.624 0-1.175.438-1.29 1.068C5.232 5.886 5 7.342 5 8.5c0 1.231.636 2.313 1.595 2.936.271.177.405.405.405.6v.41l-.003.054c-.027.26-.151 1.429-.268 2.631C6.614 16.316 6.5 17.581 6.5 18a2 2 0 1 0 4 0c0-.42-.114-1.684-.229-2.869q-.129-1.316-.268-2.63L10 12.446v-.41c0-.196.134-.424.405-.6A3.5 3.5 0 0 0 12 8.5c0-1.158-.232-2.614-.38-3.432A1.305 1.305 0 0 0 10.33 4c-.34 0-.65.127-.884.336a1.5 1.5 0 0 0-1.892 0A1.32 1.32 0 0 0 6.67 4M8 5.5a.5.5 0 0 1 1 0v3a.5.5 0 0 0 1 0V5.33a.33.33 0 0 1 .33-.33c.157 0 .28.108.306.247.147.813.364 2.192.364 3.253a2.5 2.5 0 0 1-1.14 2.098c-.439.285-.86.786-.86 1.438v.41q0 .08.008.16c.028.258.151 1.424.268 2.622.118 1.215.224 2.415.224 2.772a1 1 0 1 1-2 0c0-.357.106-1.557.224-2.772.117-1.198.24-2.364.268-2.622q.008-.08.008-.16v-.41c0-.652-.421-1.153-.86-1.438A2.5 2.5 0 0 1 6 8.5c0-1.06.217-2.44.364-3.253A.305.305 0 0 1 6.671 5 .33.33 0 0 1 7 5.33V8.5a.5.5 0 0 0 1 0zm5 3A4.5 4.5 0 0 1 17.5 4a.5.5 0 0 1 .5.5v6.978l.02.224q.117 1.348.228 2.696c.124 1.507.252 3.161.252 3.602a2 2 0 1 1-4 0c0-.44.128-2.095.252-3.602.062-.761.125-1.497.172-2.042l.03-.356H14.5a1.5 1.5 0 0 1-1.5-1.5zm2.998 3.044-.021.245-.057.653c-.047.544-.11 1.278-.172 2.038-.126 1.537-.248 3.132-.248 3.52a1 1 0 0 0 2 0c0-.388-.122-1.983-.248-3.52q-.11-1.346-.229-2.691l-.021-.244v-.001L17 11.5V5.035A3.5 3.5 0 0 0 14 8.5v2a.5.5 0 0 0 .5.5h1a.5.5 0 0 1 .498.544"/></svg>