<svg xmlns="http://www.w3.org/2000/svg" width="20" height="20" fill="none"><path fill="#B1B1B1" d="M5.83 8.958H4.165c-2.017 0-3.125-1.109-3.125-3.125V4.166c0-2.017 1.108-3.125 3.125-3.125h1.667c2.016 0 3.125 1.108 3.125 3.125v1.667c0 2.016-1.109 3.125-3.125 3.125M4.165 2.29c-1.317 0-1.875.558-1.875 1.875v1.667c0 1.316.558 1.875 1.875 1.875h1.667c1.316 0 1.875-.559 1.875-1.875V4.166c0-1.317-.559-1.875-1.875-1.875zM15.83 8.958h-1.666c-2.017 0-3.125-1.109-3.125-3.125V4.166c0-2.017 1.108-3.125 3.125-3.125h1.667c2.016 0 3.125 1.108 3.125 3.125v1.667c0 2.016-1.109 3.125-3.125 3.125M14.165 2.29c-1.317 0-1.875.558-1.875 1.875v1.667c0 1.316.558 1.875 1.875 1.875h1.667c1.316 0 1.875-.559 1.875-1.875V4.166c0-1.317-.559-1.875-1.875-1.875zM15.83 18.958h-1.666c-2.017 0-3.125-1.109-3.125-3.125v-1.667c0-2.017 1.108-3.125 3.125-3.125h1.667c2.016 0 3.125 1.108 3.125 3.125v1.667c0 2.016-1.109 3.125-3.125 3.125m-1.666-6.667c-1.317 0-1.875.558-1.875 1.875v1.667c0 1.316.558 1.875 1.875 1.875h1.667c1.316 0 1.875-.559 1.875-1.875v-1.667c0-1.317-.559-1.875-1.875-1.875zM5.83 18.958H4.165c-2.017 0-3.125-1.109-3.125-3.125v-1.667c0-2.017 1.108-3.125 3.125-3.125h1.667c2.016 0 3.125 1.108 3.125 3.125v1.667c0 2.016-1.109 3.125-3.125 3.125M4.165 12.29c-1.317 0-1.875.558-1.875 1.875v1.667c0 1.316.558 1.875 1.875 1.875h1.667c1.316 0 1.875-.559 1.875-1.875v-1.667c0-1.317-.559-1.875-1.875-1.875z"/></svg>