<svg xmlns="http://www.w3.org/2000/svg" width="48" height="49" fill="none"><g filter="url(#a)"><rect width="47" height="47" x=".5" y="1" stroke="#F08F00" rx="23.5"/><path fill="#F08F00" d="M20.246 32.259a.81.81 0 0 1-.081-1.072l.08-.092 6.728-6.595-6.727-6.595a.81.81 0 0 1-.081-1.072l.08-.092a.85.85 0 0 1 1.094-.08l.094.08 7.321 7.177c.298.292.325.75.081 1.072l-.08.092-7.322 7.177a.85.85 0 0 1-1.187 0"/></g><defs><filter id="a" width="64" height="64" x="-8" y="-7.5" color-interpolation-filters="sRGB" filterUnits="userSpaceOnUse"><feFlood flood-opacity="0" result="BackgroundImageFix"/><feGaussianBlur in="BackgroundImageFix" stdDeviation="4"/><feComposite in2="SourceAlpha" operator="in" result="effect1_backgroundBlur_3142_8387"/><feBlend in="SourceGraphic" in2="effect1_backgroundBlur_3142_8387" result="shape"/></filter></defs></svg>