<svg xmlns="http://www.w3.org/2000/svg" width="20" height="20" fill="none"><g clip-path="url(#a)"><path fill="#fff" d="M19.46 8.699v-.001L11.3.54A1.83 1.83 0 0 0 9.999 0a1.83 1.83 0 0 0-1.302.54L.543 8.692l-.008.009a1.843 1.843 0 0 0 .003 2.6 1.83 1.83 0 0 0 1.279.54h.325v6.003c0 1.188.967 2.155 2.155 2.155h3.192a.586.586 0 0 0 .586-.586v-4.707c0-.542.44-.983.983-.983h1.882c.543 0 .984.44.984.983v4.707c0 .324.262.586.585.586h3.192a2.157 2.157 0 0 0 2.155-2.155v-6.004h.302a1.83 1.83 0 0 0 1.302-.539 1.844 1.844 0 0 0 0-2.603"/></g><defs><clipPath id="a"><path fill="#fff" d="M0 0h20v20H0z"/></clipPath></defs></svg>