<svg xmlns="http://www.w3.org/2000/svg" width="21" height="20" fill="none"><path fill="#fff" d="M10.501 7a3 3 0 1 0 0 6 3 3 0 0 0 0-6m0-2a5 5 0 1 1 0 10 5 5 0 0 1 0-10m6.5-.25a1.25 1.25 0 1 1-2.5 0 1.25 1.25 0 0 1 2.5 0M10.501 2c-2.474 0-2.878.007-4.029.058-.784.037-1.31.142-1.798.332-.408.15-.778.39-1.08.703a2.9 2.9 0 0 0-.704 1.08c-.19.49-.295 1.015-.331 1.798C2.507 7.075 2.5 7.461 2.5 10c0 2.475.007 2.878.058 4.029.037.783.142 1.31.331 1.797.17.435.37.748.702 1.08.337.336.65.537 1.08.703.494.191 1.02.297 1.8.333 1.104.052 1.49.058 4.029.058 2.475 0 2.878-.007 4.029-.058.782-.037 1.308-.142 1.797-.331a2.9 2.9 0 0 0 1.08-.703c.337-.336.538-.649.704-1.08.19-.492.296-1.018.332-1.8.052-1.103.058-1.49.058-4.028 0-2.474-.007-2.878-.058-4.029-.037-.782-.143-1.31-.332-1.798a2.9 2.9 0 0 0-.703-1.08 2.9 2.9 0 0 0-1.08-.704c-.49-.19-1.016-.295-1.798-.331C13.426 2.006 13.04 2 10.5 2m0-2c2.717 0 3.056.01 4.123.06 1.064.05 1.79.217 2.427.465.66.254 1.216.598 1.772 1.153.509.5.902 1.105 1.153 1.772.247.637.415 1.363.465 2.428.047 1.066.06 1.405.06 4.122s-.01 3.056-.06 4.122-.218 1.79-.465 2.428a4.9 4.9 0 0 1-1.153 1.772c-.5.508-1.105.902-1.772 1.153-.637.247-1.363.415-2.427.465-1.067.047-1.406.06-4.123.06s-3.056-.01-4.123-.06c-1.064-.05-1.789-.218-2.427-.465a4.9 4.9 0 0 1-1.772-1.153 4.9 4.9 0 0 1-1.153-1.772C.777 15.913.61 15.187.56 14.122.512 13.056.5 12.717.5 10s.01-3.056.06-4.122.217-1.79.465-2.428a4.9 4.9 0 0 1 1.153-1.772A4.9 4.9 0 0 1 3.95.525C4.587.277 5.312.11 6.377.06 7.445.013 7.784 0 10.501 0"/></svg>