<svg xmlns="http://www.w3.org/2000/svg" width="19" height="18" fill="none"><path fill="#fff" d="M15.5 0a3 3 0 0 1 3 3v12a3 3 0 0 1-3 3h-12a3 3 0 0 1-3-3V3a3 3 0 0 1 3-3zm0 2h-12a1 1 0 0 0-1 1v12a1 1 0 0 0 1 1h12a1 1 0 0 0 1-1V3a1 1 0 0 0-1-1m-10 5a1 1 0 0 1 .993.883L6.5 8v5a1 1 0 0 1-1.993.117L4.5 13V8a1 1 0 0 1 1-1m3-1a1 1 0 0 1 .984.821 6 6 0 0 1 .623-.313c.667-.285 1.666-.442 2.568-.159.473.15.948.43 1.3.907.315.425.485.942.519 1.523L14.5 9v4a1 1 0 0 1-1.993.117L12.5 13V9c0-.33-.08-.484-.132-.555a.55.55 0 0 0-.293-.188c-.348-.11-.849-.052-1.182.09-.5.214-.958.55-1.27.861L9.5 9.34V13a1 1 0 0 1-1.993.117L7.5 13V7a1 1 0 0 1 1-1m-3-2a1 1 0 1 1 0 2 1 1 0 0 1 0-2"/></svg>