<svg xmlns="http://www.w3.org/2000/svg" width="24" height="24" fill="none"><g clip-path="url(#a)"><path fill="red" d="M10.204 18.634h1.148v-4.292q.718 0 1.22-.469.502-.47.502-1.141V9.513h-1.148v3.219h-.574V9.513h-1.148v3.219H9.63V9.513H8.48v3.219q0 .672.503 1.141.501.47 1.22.47zm4.592 0h1.15V9.513q-.938 0-1.618.63-.678.63-.678 1.516v3.22h1.146zM3 22V8.684L12.5 2 22 8.684V22zm1.357-1.268h16.286V9.318L12.5 3.61 4.357 9.318z"/></g><defs><clipPath id="a"><path fill="#fff" d="M0 0h24v24H0z"/></clipPath></defs></svg>