<svg width="1440" height="828" viewBox="0 0 1440 828" fill="none" xmlns="http://www.w3.org/2000/svg">
<path d="M-162.36 125.417C-240.802 125.417 -372.227 41.8058 -428.134 0H-472V734.214C-422.974 809.987 10.5228 783.858 175.664 734.214C340.806 684.569 575.616 768.181 779.463 815.212C983.309 862.244 1125.23 765.568 1287.79 749.891C1417.84 737.349 1603.45 788.213 1680 815.212V151.546C1638.71 151.546 1612.91 104.514 1507.12 62.7086C1401.32 20.9029 1274.89 41.8058 1194.9 49.6443C1114.91 57.4829 779.463 156.772 678.83 151.546C578.197 146.32 431.117 54.8701 317.583 28.7415C204.048 2.61286 -64.307 125.417 -162.36 125.417Z" fill="#F08F00"/>
</svg>
