<svg xmlns="http://www.w3.org/2000/svg" width="1440" height="828" fill="none"><path fill="#F08F00" d="M-162.36 125.417c-78.442 0-209.867-83.611-265.774-125.417H-472v734.214c49.026 75.773 482.523 49.644 647.664 0 165.142-49.645 399.952 33.967 603.799 80.998s345.767-49.644 508.327-65.321c130.05-12.542 315.66 38.322 392.21 65.321V151.546c-41.29 0-67.09-47.032-172.88-88.837-105.8-41.806-232.23-20.903-312.22-13.065-79.99 7.839-415.437 107.128-516.07 101.902S431.117 54.87 317.583 28.742c-113.535-26.13-381.89 96.675-479.943 96.675"/></svg>