<svg xmlns="http://www.w3.org/2000/svg" width="1728" height="747" fill="none"><path fill="#F08F00" d="M174.878 113.148C103.215 113.148-16.85 37.716-67.926 0H-108v662.388c44.789 68.361 440.818 44.788 591.686 0s365.384 30.645 551.614 73.075 315.88-44.788 464.39-58.931c118.81-11.315 288.38 34.573 358.31 58.931V136.721c-37.72 0-61.29-42.43-157.94-80.147-96.65-37.716-212.16-18.858-285.24-11.786-73.07 7.072-379.52 96.647-471.458 91.933-91.935-4.715-226.302-87.219-330.024-110.791s-348.882 87.218-438.46 87.218"/></svg>