<svg width="20" height="21" viewBox="0 0 20 21" fill="none" xmlns="http://www.w3.org/2000/svg">
<path d="M14.1684 17.9995C14.3894 17.9995 14.6014 17.9117 14.7577 17.7554C14.9139 17.5991 15.0017 17.3872 15.0017 17.1661V12.7078C15.0017 12.327 15.2651 12.0045 15.6076 11.8403C16.3167 11.502 16.8836 10.9241 17.2081 10.2085C17.5326 9.493 17.594 8.68581 17.3813 7.92944C17.1686 7.17307 16.6955 6.51614 16.0456 6.0746C15.3958 5.63305 14.6108 5.43526 13.8292 5.51614C13.5074 4.76798 12.9733 4.13055 12.2931 3.68267C11.6128 3.23479 10.8162 2.99609 10.0017 2.99609C9.18729 2.99609 8.39069 3.23479 7.71044 3.68267C7.03019 4.13055 6.49611 4.76798 6.17425 5.51614C5.39307 5.43583 4.60861 5.63389 3.95919 6.07542C3.30977 6.51695 2.83709 7.17359 2.62449 7.92956C2.41188 8.68553 2.47301 9.49229 2.79708 10.2076C3.12116 10.9229 3.68738 11.5008 4.39591 11.8395C4.73841 12.0045 5.00175 12.327 5.00175 12.707V17.1661C5.00175 17.3872 5.08954 17.5991 5.24582 17.7554C5.4021 17.9117 5.61407 17.9995 5.83508 17.9995H14.1684Z" fill="#B1B1B1"/>
<path d="M5 14.666H15" stroke="white" stroke-width="2" stroke-linecap="round" stroke-linejoin="round"/>
</svg>
