<svg xmlns="http://www.w3.org/2000/svg" width="1728" height="714" fill="none"><path fill="#F08F00" d="M178.072 108.15C104.587 108.15-18.532 36.05-70.906 0H-112v633.126c45.928 65.341 452.029 42.809 606.734 0s374.676 29.291 565.636 69.847c190.97 40.556 323.92-42.809 476.21-56.328 121.83-10.815 295.71 33.046 367.42 56.328V130.681c-38.68 0-62.85-40.556-161.96-76.606-99.1-36.05-217.55-18.025-292.49-11.266-74.93 6.76-389.18 92.378-483.449 87.872-94.274-4.506-232.058-83.366-338.418-105.897-106.359-22.53-357.755 83.366-449.611 83.366"/></svg>