<svg xmlns="http://www.w3.org/2000/svg" width="141" height="35" fill="none"><path fill="#1C1A1A" d="M36.766 14.075S35.553 3.834 26.85 1.066C21.996-.492 19.57-.027 16.605.502c-3.492.614-7.686 2.121-10.687 4.723A15.2 15.2 0 0 0 .98 13.047a13.5 13.5 0 0 0-.147 5.502c.115.696 1.098 1.343 1.098.216C2.047 6.17 12.312 3.817 12.67 3.75c.131-.032.263-.05.378-.082q.242-.06.491-.05a.13.13 0 0 1 .11.112.13.13 0 0 1-.077.137c-.82.397-4.016 1.491-5.754 3.032a14 14 0 0 0-4.783 8.435 37 37 0 0 0 .115 7.292 11.6 11.6 0 0 0 1.947 4.554 17.95 17.95 0 0 0 6.901 5.137q1.577.45 3.196.696a.2.2 0 0 1 .165.214.197.197 0 0 1-.197.184c-1.132.182-3.836-.447-6.082-1.558a13.4 13.4 0 0 1-3.983-3.23c-1.247-1.36-1.918-2.785-2.377-2.702-.77.166-.115 1.806.229 2.436a13.44 13.44 0 0 0 4.623 4.706 16.17 16.17 0 0 0 8.884 1.89c7.063-.597 11.409-4.043 13.343-6.729 1.132-1.574 3.656-4.888 3.59-9.744-.016-.779.066-6.148-1.687-8.948-.394-.63-1.593-3.248-6.082-5.485a8.8 8.8 0 0 0-3.128-.992c-.525-.017-1.593-.067-1.492-.696.066-.447 2.689.149 2.967.215a20 20 0 0 1 5.967 3.281c5.193 4.01 4.671 12.512 4.671 12.512-.229 9.03-5.442 12.86-9.209 15.13-.066.05-.346.398-.262.53.084.133.262.117.442.1 1.443-.15 2.852-1.227 4.049-2.188 6.196-4.905 6.509-8.75 6.868-10.192.456-2.53.55-5.114.277-7.672M2.162 22.709q.013.71.148 1.408a.5.5 0 0 1-.165.459.48.48 0 0 1-.475.088 1.9 1.9 0 0 1-.835-.365 1.5 1.5 0 0 1-.46-.812c-.196-.696-.606-2.751.656-2.734a.91.91 0 0 1 .705.35c.288.486.436 1.043.427 1.61"/><path fill="#fff" d="M27.306 16.511c-.18-.066-.346-.132-.476-.182-.475-.199-1.638-.497-2.573-.745a34 34 0 0 1-1.164-.315q-.274-.798-.443-1.624a4 4 0 0 0-.13-.531c-.082-.298-.197-.464-.476-.431h-.017c-.098.017-1.491.364-3.753.96-1.524.398-3.098.796-3.197.813-.13.017-.196.083-1.196 1.657-.295.464-.672 1.06-.722 1.127-.032.017-.245.116-.475.232-.623.298-1.8.844-2.803 1.425a22.3 22.3 0 0 0-3.41 2.32.275.275 0 0 0 0 .315.5.5 0 0 0 .46.165.3.3 0 0 0 .13-.032c.214-.05 6.983-1.426 10.852-2.072.97-.166 2.196-.315 3.64-.48 3.556-.382 7.131-.581 7.343-.56a.7.7 0 0 0 .574-.232.76.76 0 0 0 .18-.481c-.033-.365-.77-.713-2.344-1.326"/><path fill="#1C1A1A" d="M130.957 23.587h1.098v.232h-.41v1.176h-.262V23.82h-.426zm1.295 0h.41l.376 1.077.378-1.077h.41v1.408h-.263V23.82l-.41 1.176h-.213l-.41-1.176v1.176h-.262v-1.408zM118.433 22.725c.459-1.375 1.049-4.557-.869-5.055a2.5 2.5 0 0 0-2.033.448c0 .73.786.58.803 1.293-.492 1.474-2.557 4.209-.787 5.85 1.593 1.474 4.18-.299 4.986-.895.606-.464 1.13-1.077 1.639-1.16.18 1.89.9 3.182 2.573 3.414.492-.547.066-1.177.082-1.873.099-1.189.313-2.366.639-3.513.263-1.16.918-2.436.049-3.513-1-.232-1.426.613-1.869 1.16a11.26 11.26 0 0 1-5.213 3.844M72.568 16.18c-1.328-.48-3.574-.165-5.54-.28-1.77-.099-4.081-.745-3.966.796.13 1.82 3.753 1.624 5.639 1.442-1.328 1.243-2.902 2.45-4.41 3.71-1.311 1.11-3.704 2.419-3.046 4.905 1.475.845 3.23 0 5.18-.082 3.67-.133 6.803.98 10.294.662 1.36-.116 3.508-.58 3.393-2.088-.771-.464-1.427.017-2.18.1-3.591.381-6.968-1.641-11.049-1.376 1.049-1.11 2.424-2.204 3.64-3.364 1.098-1.044 2.72-2.386 2.048-4.425m-10.889-.891a.7.7 0 0 0-1.016.231c-1.623 1.972-5.295 5.055-4.967 8.286.115 1.16.77 2.618 2.246 2.121.426-.381.262-.91.459-1.408 1.177-2.917 4.59-4.956 3.278-9.23m16.032 6.214c1.049-.96 1.901-1.89 3.098-3.016.803-.762 2.967-2.088 2.343-3.729-.346-.895-1.87-1.077-2.967-1.077-1.557 0-3.54.48-5.147.43-.554-.016-1.066-.48-1.508-.131-1.459 3.066 3.131 2.87 5.393 2.618-1.639 1.79-4.508 2.87-5.934 4.872a2.415 2.415 0 0 0-.508 2.22c.607.498 1.295.15 1.967.133 3.016-.1 6.475.91 8.737-.166a12 12 0 0 0 1.197-.928c2.753.894 4.704-.696 6.31-1.591.97 1.326 4.935 1.408 5.263-.315-.623-1.078-2.344-.464-2.672-1.657-.327-1.226 1.754-3 .46-4.325-.509-.35-1.066.198-1.378-.017-3.95-.497-8.065 1.674-9.065 4.623a4.8 4.8 0 0 0 .082 2.47c-1.673.679-3.836-.167-5.672-.415m9.081-1.575c.427-1.756 2-2.435 3.787-2.9.492.017-.213.531-.164.812-.164.324-.254.68-.263 1.044-1.098.365-1.885 1.028-3.36 1.044m47.177-8.435c-1.426-.382-2.016.73-2.852 1.74-.672.812-1.082 1.64-1.476 1.74-.95.28-2.442-.613-3.245-.381a1.113 1.113 0 0 0-.737.928c-.033 1.26 1.475 1.442 2.688 1.89a21.4 21.4 0 0 0-1.606 4.209c-.346 1.458-.737 3.613.082 5.154.983-.166 1.229-1.359 1.557-2.105a54 54 0 0 1 3.655-7.474c2.147-.224 4.27-.64 6.344-1.243.639-.166 1.541-.1 1.771-.812-.46-.547-1.361-.365-2.098-.365-1.754-.016-3.64.1-4.82.083.394-.879 1.606-1.956.737-3.364M66.699 8.988c-1.754-.58-4.64.812-5.573 2.187-.607.879-.804 2.619.346 2.933 1.459.398 2.557-1.293 3.18-1.972.95-1.043 1.77-1.773 2.049-3.15m40.062 7.325c.607-1.19 1-2.27 1.656-3.745.277-.646 1.885-3.613.361-3.977-.017 0-.099-.017-.115 0-2.59.729-4.426 5.733-6.033 7.805-1.967-.05-4.376-.2-4.261 1.26.081 1.19 1.8 1.425 2.802 2.005-.36 1.16-2.573 5.833-.688 7.027 1.967 1.26 3-1.674 3.443-2.9.442-1.402.985-2.77 1.623-4.093 1.557-.117 3.278-.646 4.541-.663-.346 1.358-1.098 3.265-.277 5.04 1.442.944 2.524-.083 3.016-1.028.803-1.508.918-4.176 1.508-5.386.934-.56 2.377-.63 2.606-1.855-.541-.53-1.36.017-2.065-.017q.428-1.543 1.016-3.033c.328-1.01.984-2.24.197-3.28-1.606.28-2.295 1.756-2.984 2.9-.754 1.276-1.36 2.634-2.098 3.844-1.442.033-2.721.182-4.246.1m-58.213 2.963c.59-.68 1.656-.547 2.574-.796 1.623-.447 4.13-1.64 4.065-3.71-.066-1.82-1.8-2.883-3.836-3.198-1.426 4.955-3.836 9.363-6.13 13.672-.689 1.309-1.378 3.231-3.181 3.38-.885-.778-.59-1.905-.442-2.7a29.8 29.8 0 0 1 2.423-6.894 30.9 30.9 0 0 1 5.016-7.573c-.836.033-1.36.149-1.984-.249-.525-2.42 1.967-2.933 3.689-3.05 3.966-.248 7.966 2.04 7.868 6.149-.081 3.347-3.64 5.535-7 5.8-.95.1-2.409.216-3.065-.829"/></svg>