<svg xmlns="http://www.w3.org/2000/svg" width="1728" height="288" fill="none"><path fill="#F08F00" d="M201.448 43.56C133.631 43.56 20.008 14.52-28.326 0H-66.25v255.006c42.386 26.317 417.162 17.242 559.935 0s345.776 11.797 522.015 28.132c176.23 16.335 298.92-17.242 439.47-22.687 112.43-4.356 272.9 13.31 339.08 22.687V52.635c-35.69 0-58-16.335-149.46-30.855-91.47-14.52-200.78-7.26-269.93-4.538-69.16 2.723-359.16 37.208-446.166 35.393C841.692 50.82 714.535 19.057 616.38 9.982S286.219 43.56 201.448 43.56"/></svg>