<svg xmlns="http://www.w3.org/2000/svg" width="1728" height="43" fill="none"><g fill="#F08F00" clip-path="url(#a)"><path d="M-1.171 6.568H9.037v22q0 2.816-.264 4.752a14.4 14.4 0 0 1-1.012 3.696q-.705 1.76-2.024 2.816-1.32 1.056-3.476 1.848-2.112.792-5.148 1.1-2.992.307-7.172.264 0-.308-.044-2.992v-5.148q2.112 0 3.388-.088a10.1 10.1 0 0 0 2.42-.44q1.1-.308 1.628-.748t.88-1.364a6 6 0 0 0 .484-1.98q.132-1.1.132-2.86zm0-6.952H9.037v4.928H-1.171zm31.206 6.732q3.257 0 5.852.308 2.597.264 5.192 1.144 2.596.836 4.312 2.244t2.772 3.784q1.056 2.332 1.056 5.5 0 3.608-1.32 6.16-1.275 2.551-3.828 4.048-2.551 1.452-5.896 2.112-3.343.616-7.876.616-4.62 0-7.964-.66-3.343-.66-5.808-2.112-2.463-1.496-3.696-4.004-1.188-2.552-1.188-6.16 0-3.08.968-5.412 1.013-2.332 2.64-3.74Q16.88 8.768 19.3 7.888A22.3 22.3 0 0 1 24.271 6.7q2.596-.352 5.764-.352m.352 18.7q3.873 0 5.896-1.276 2.068-1.32 2.068-4.444 0-1.716-.792-2.904a4.67 4.67 0 0 0-2.112-1.804 10.7 10.7 0 0 0-2.552-.792 12.6 12.6 0 0 0-2.64-.264q-1.011 0-2.024.176a9.3 9.3 0 0 0-2.068.528 7 7 0 0 0-1.848 1.012q-.748.615-1.276 1.628-.483.968-.484 2.2 0 3.036 1.892 4.488 1.937 1.452 5.94 1.452M51.775 6.524h10.252V32H51.775zm0-6.952h10.252v4.972H51.775zM98.49 11.716q1.056 2.376 1.276 6.116.264 3.696.264 12.144V32H89.778V21.924q0-.484-.088-1.364-.044-.88-.176-1.364a8 8 0 0 0-.352-1.276q-.22-.792-.572-1.232a6 6 0 0 0-.836-1.012 3.6 3.6 0 0 0-1.144-.836q-.66-.308-1.584-.484a8.7 8.7 0 0 0-2.024-.22q-2.816 0-4.532.836-1.672.792-3.124 2.288V32h-10.34V6.524h10.34v3.52q1.409-1.012 2.156-1.452.792-.485 2.156-1.1a11.4 11.4 0 0 1 3.036-.924q1.629-.264 3.74-.264 2.068 0 3.652.176t3.3.704q1.761.528 3.036 1.672 1.32 1.144 2.068 2.86M143.776.628q4.18 0 7.392.484 3.212.44 5.94 1.54t4.444 2.904q1.76 1.76 2.728 4.488.968 2.684.968 6.336 0 3.608-.88 6.248-.836 2.64-2.464 4.488-1.584 1.804-4.224 2.948-2.596 1.1-5.896 1.584t-7.7.484q-10.912 0-15.884-3.96-4.928-4.004-4.928-12.364 0-7.744 5.06-11.44 5.06-3.74 15.444-3.74m.396 23.408q4.664 0 7.216-1.892t2.552-5.764q0-3.74-2.684-5.676-2.684-1.98-7.216-1.98-2.376 0-4.18.528-1.804.484-2.992 1.496a6.4 6.4 0 0 0-1.716 2.42q-.572 1.409-.572 3.212 0 3.476 2.42 5.588 2.42 2.068 7.172 2.068M195.116 6.48h10.12V32h-10.12v-3.916q-3.873 3.872-11.22 3.872-5.94 0-9.328-1.276-3.345-1.32-4.972-4.796-1.188-2.508-1.584-6.204t-.396-11.176l.044-2.024h10.12v10.208q.044.572.176 1.628.176 1.056.44 1.672.264.572.792 1.364.572.748 1.32 1.144.792.396 1.98.704 1.232.308 2.772.308 5.412 0 9.856-4.004zm33.58.044q6.248 0 10.076 2.508.307.175.352.22l-3.828 7.832a12 12 0 0 0-1.144-.528q-.749-.352-2.816-.924-2.068-.572-3.916-.704-1.629-.088-3.08.176t-2.288.572q-.837.264-1.892 1.012-1.012.704-1.276.968-.22.22-1.012.968V32H207.62V6.48h10.251999999999999v3.564q2.816-3.52 10.824-3.52m33.752-5.412h22.704q.88 0 1.672.044t2.2.308q1.452.22 2.596.66 1.188.396 2.508 1.276a8.1 8.1 0 0 1 2.2 2.024q.923 1.144 1.496 2.948.615 1.805.616 4.092 0 7.304-5.676 10.428L299.1 32l-11.836-.044-5.28-7.26H272.7V32h-10.252zm21.736 14.564q3.828 0 3.828-2.904 0-2.64-4.004-2.64H272.7v5.544zm17.411-9.152h10.252V32h-10.252zm0-6.952h10.252v4.972h-10.252zM342.733 1.2h10.208V32h-10.208v-2.728q-4.18 2.948-11.836 2.948-1.848 0-3.344-.132a29 29 0 0 1-3.256-.396q-1.76-.352-3.124-.924a12.2 12.2 0 0 1-2.684-1.584 9.7 9.7 0 0 1-2.2-2.332q-.836-1.365-1.364-3.344-.528-2.024-.528-4.488 0-3.08 1.32-5.5 1.364-2.464 3.652-3.916 2.287-1.495 5.148-2.244 2.904-.792 6.16-.792 6.688 0 12.056 2.684zm0 20.108v-3.476q-1.409-3.784-10.428-3.784h-1.1q-.308 0-1.012.088-.66.044-1.144.176-.44.132-1.1.396a3.1 3.1 0 0 0-1.056.616 9 9 0 0 0-.792.924q-.396.528-.616 1.32a8 8 0 0 0-.176 1.76q0 5.235 7.612 5.236 4.268 0 6.38-.616 2.156-.66 3.432-2.64m30.752-15.4q4.531 0 7.876.792 3.344.792 5.808 2.596t3.608 4.928q1.143 3.08.792 7.436h-26.136q.22 1.188 2.156 1.936 1.935.748 5.808.748a52 52 0 0 0 6.732-.44q3.388-.44 5.104-.88l1.672-.44 4.4 7.128q-.133.088-.484.264-.352.132-1.804.528-1.409.396-3.212.704-1.805.308-5.016.572-3.212.22-7.04.22-4.488 0-7.832-.616-3.3-.616-5.412-1.716-2.069-1.1-3.344-2.772-1.277-1.672-1.76-3.564t-.484-4.4q0-6.16 4.664-9.592 4.707-3.432 13.904-3.432m.088 7.876q-2.42 0-4.136.352t-2.508.924q-.793.528-1.144 1.056-.352.528-.352 1.056h15.752q0-1.452-1.76-2.42-1.716-.968-5.852-.968m41.048-7.26q6.248 0 10.076 2.508.309.175.352.22l-3.828 7.832a12 12 0 0 0-1.144-.528q-.747-.352-2.816-.924-2.067-.572-3.916-.704-1.628-.088-3.08.176t-2.288.572q-.836.264-1.892 1.012-1.012.704-1.276.968-.22.22-1.012.968V32h-10.252V6.48h10.251999999999999v3.564q2.817-3.52 10.824-3.52m27.234 9.592q4.532 0 7.436.22 2.947.22 5.104.704 2.199.485 3.3 1.452a5.37 5.37 0 0 1 1.628 2.332q.528 1.32.528 3.388 0 1.805-.264 3.036a5.6 5.6 0 0 1-.968 2.244q-.748 1.012-1.98 1.628-1.188.616-3.256 1.056-2.024.44-4.796.616-2.729.176-6.6.176-13.42 0-15.796-2.2l2.86-7.304q1.055.704 5.192 1.188 4.135.44 8.14.44h1.936q3.651 0 4.796-.088 1.144-.132 1.144-.66 0-1.452-8.536-1.452-3.477 0-5.94-.176a30 30 0 0 1-4.532-.748q-2.068-.528-3.3-1.408a6.5 6.5 0 0 1-1.936-2.332q-.66-1.452-.66-3.432 0-1.452.22-2.596.263-1.145.836-1.98a7.1 7.1 0 0 1 1.276-1.496q.703-.66 1.848-1.1a18 18 0 0 1 2.376-.704q1.232-.264 3.036-.396a74 74 0 0 1 3.52-.176 83 83 0 0 1 4.136-.088q5.367 0 8.712.352 3.388.352 4.84.836 1.495.484 3.168 1.364l-3.168 6.996q-2.069-.748-6.204-1.276a58 58 0 0 0-8.008-.572h-1.012q-3.652 0-4.708.132t-1.056.792q.043 1.232 6.688 1.232m85.719 1.716a9 9 0 0 1-.264.484q-.176.308-.836 1.232t-1.452 1.848q-.747.924-2.068 2.2a23.4 23.4 0 0 1-2.772 2.288L527.574 32h-12.188l-2.684-2.112Q506.939 32 500.162 32q-9.063 0-13.86-3.74-3.696-2.86-2.992-6.468.749-3.915 6.512-6.6a28 28 0 0 1 2.64-1.056q-3.211-1.76-4.312-4.576-1.275-3.476 1.804-5.764 3.564-2.595 11.924-2.596 11.44 0 11.572 6.336 0 2.332-1.76 4.048t-4.884 3.212l7.216 5.984a11.5 11.5 0 0 0 2.42-2.948zm-23.892-10.12q0-.748-1.496-1.056a6.1 6.1 0 0 0-2.992.044q-1.496.352-1.496 1.276 0 .528.704 1.188.705.66 1.452 1.056l.704.396q.045 0 .132-.044.132-.088.44-.22.352-.176.66-.352.309-.22.66-.484t.616-.528q.264-.264.44-.572.176-.353.176-.704m-9.24 14.476q0 1.232 1.672 2.024 1.716.748 4.268.836 2.553.088 5.544-.484l-7.744-6.116q-3.74 1.848-3.74 3.74m88.487-21.076h11.748L579.541 32h-13.42L550.897 1.112h11.748l10.164 21.868zm25.895 4.796q4.533 0 7.876.792 3.345.792 5.808 2.596 2.465 1.804 3.608 4.928 1.145 3.08.792 7.436h-26.136q.22 1.188 2.156 1.936t5.808.748q3.389 0 6.732-.44 3.388-.44 5.104-.88l1.672-.44 4.4 7.128a5 5 0 0 1-.484.264q-.352.132-1.804.528-1.407.396-3.212.704-1.803.308-5.016.572-3.212.22-7.04.22-4.487 0-7.832-.616-3.3-.616-5.412-1.716-2.067-1.1-3.344-2.772-1.275-1.672-1.76-3.564-.484-1.892-.484-4.4 0-6.16 4.664-9.592 4.709-3.432 13.904-3.432m.088 7.876q-2.42 0-4.136.352t-2.508.924q-.792.528-1.144 1.056t-.352 1.056h15.752q0-1.452-1.76-2.42-1.716-.968-5.852-.968m53.199-2.068q1.057 2.376 1.276 6.116.264 3.696.264 12.144V32h-10.252V21.924q0-.484-.088-1.364-.044-.88-.176-1.364a8 8 0 0 0-.352-1.276q-.22-.792-.572-1.232a6 6 0 0 0-.836-1.012 3.6 3.6 0 0 0-1.144-.836q-.66-.308-1.584-.484a8.7 8.7 0 0 0-2.024-.22q-2.816 0-4.532.836-1.671.792-3.124 2.288V32h-10.34V6.524h10.34v3.52q1.409-1.012 2.156-1.452.792-.485 2.156-1.1a11.4 11.4 0 0 1 3.036-.924q1.629-.264 3.74-.264 2.068 0 3.652.176t3.3.704q1.761.528 3.036 1.672 1.32 1.144 2.068 2.86M693.702 1.2h10.208V32h-10.208v-2.728q-4.18 2.948-11.836 2.948-1.848 0-3.344-.132a29 29 0 0 1-3.256-.396q-1.76-.352-3.124-.924t-2.684-1.584a9.7 9.7 0 0 1-2.2-2.332q-.836-1.365-1.364-3.344-.528-2.024-.528-4.488 0-3.08 1.32-5.5 1.363-2.464 3.652-3.916 2.287-1.495 5.148-2.244 2.904-.792 6.16-.792 6.687 0 12.056 2.684zm0 20.108v-3.476q-1.409-3.784-10.428-3.784h-1.1q-.309 0-1.012.088-.66.044-1.144.176-.44.132-1.1.396a3.1 3.1 0 0 0-1.056.616 9 9 0 0 0-.792.924q-.397.528-.616 1.32a8 8 0 0 0-.176 1.76q0 5.235 7.612 5.236 4.268 0 6.38-.616 2.156-.66 3.432-2.64m30.193-14.96q3.255 0 5.852.308 2.595.264 5.192 1.144 2.596.836 4.312 2.244t2.772 3.784q1.056 2.332 1.056 5.5 0 3.608-1.32 6.16-1.276 2.551-3.828 4.048-2.553 1.452-5.896 2.112-3.345.616-7.876.616-4.62 0-7.964-.66t-5.808-2.112q-2.464-1.496-3.696-4.004-1.188-2.552-1.188-6.16 0-3.08.968-5.412 1.011-2.332 2.64-3.74 1.627-1.408 4.048-2.288a22.3 22.3 0 0 1 4.972-1.188q2.596-.352 5.764-.352m.352 18.7q3.871 0 5.896-1.276 2.067-1.32 2.068-4.444 0-1.716-.792-2.904a4.67 4.67 0 0 0-2.112-1.804 10.7 10.7 0 0 0-2.552-.792 12.6 12.6 0 0 0-2.64-.264q-1.013 0-2.024.176a9.3 9.3 0 0 0-2.068.528 7 7 0 0 0-1.848 1.012q-.748.615-1.276 1.628-.484.968-.484 2.2 0 3.036 1.892 4.488 1.935 1.452 5.94 1.452m41.558-18.524q6.248 0 10.076 2.508.308.175.352.22l-3.828 7.832a12 12 0 0 0-1.144-.528q-.748-.352-2.816-.924t-3.916-.704q-1.628-.088-3.08.176t-2.288.572q-.836.264-1.892 1.012-1.012.704-1.276.968-.22.22-1.012.968V32h-10.252V6.48h10.251999999999999v3.564q2.815-3.52 10.824-3.52m27.233 9.592q4.533 0 7.436.22 2.949.22 5.104.704 2.2.485 3.3 1.452a5.35 5.35 0 0 1 1.628 2.332q.528 1.32.528 3.388 0 1.805-.264 3.036a5.6 5.6 0 0 1-.968 2.244q-.747 1.012-1.98 1.628-1.188.616-3.256 1.056-2.024.44-4.796.616-2.727.176-6.6.176-13.42 0-15.796-2.2l2.86-7.304q1.056.704 5.192 1.188 4.137.44 8.14.44h1.936q3.653 0 4.796-.088 1.144-.132 1.144-.66 0-1.452-8.536-1.452-3.476 0-5.94-.176a30 30 0 0 1-4.532-.748q-2.067-.528-3.3-1.408a6.5 6.5 0 0 1-1.936-2.332q-.66-1.452-.66-3.432 0-1.452.22-2.596.264-1.145.836-1.98a7.2 7.2 0 0 1 1.276-1.496q.705-.66 1.848-1.1a18 18 0 0 1 2.376-.704q1.233-.264 3.036-.396a74 74 0 0 1 3.52-.176 83 83 0 0 1 4.136-.088q5.368 0 8.712.352 3.388.352 4.84.836 1.497.484 3.168 1.364l-3.168 6.996q-2.067-.748-6.204-1.276a58 58 0 0 0-8.008-.572h-1.012q-3.652 0-4.708.132t-1.056.792q.045 1.232 6.688 1.232M856.829 6.568h10.208v22q0 2.816-.264 4.752a14.4 14.4 0 0 1-1.012 3.696q-.704 1.76-2.024 2.816t-3.476 1.848q-2.112.792-5.148 1.1-2.992.307-7.172.264 0-.308-.044-2.992v-5.148q2.112 0 3.388-.088 1.32-.088 2.42-.44 1.1-.308 1.628-.748t.88-1.364a6 6 0 0 0 .484-1.98q.132-1.1.132-2.86zm0-6.952h10.208v4.928h-10.208zm31.206 6.732q3.257 0 5.852.308 2.597.264 5.192 1.144 2.596.836 4.312 2.244t2.772 3.784q1.056 2.332 1.056 5.5 0 3.608-1.32 6.16-1.275 2.551-3.828 4.048-2.551 1.452-5.896 2.112-3.343.616-7.876.616-4.62 0-7.964-.66-3.343-.66-5.808-2.112-2.463-1.496-3.696-4.004-1.188-2.552-1.188-6.16 0-3.08.968-5.412 1.012-2.332 2.64-3.74t4.048-2.288a22.4 22.4 0 0 1 4.972-1.188q2.596-.352 5.764-.352m.352 18.7q3.873 0 5.896-1.276 2.068-1.32 2.068-4.444 0-1.716-.792-2.904a4.67 4.67 0 0 0-2.112-1.804 10.7 10.7 0 0 0-2.552-.792 12.6 12.6 0 0 0-2.64-.264q-1.011 0-2.024.176a9.3 9.3 0 0 0-2.068.528 7 7 0 0 0-1.848 1.012q-.748.615-1.276 1.628-.484.968-.484 2.2 0 3.036 1.892 4.488 1.936 1.452 5.94 1.452m21.388-18.524h10.252V32h-10.252zm0-6.952h10.252v4.972h-10.252zm46.715 12.144q1.056 2.376 1.276 6.116.264 3.696.264 12.144V32h-10.252V21.924q0-.484-.088-1.364-.044-.88-.176-1.364a8 8 0 0 0-.352-1.276q-.22-.792-.572-1.232a6 6 0 0 0-.836-1.012 3.6 3.6 0 0 0-1.144-.836q-.66-.308-1.584-.484a8.7 8.7 0 0 0-2.024-.22q-2.816 0-4.532.836-1.671.792-3.124 2.288V32h-10.34V6.524h10.34v3.52q1.409-1.012 2.156-1.452.792-.485 2.156-1.1a11.4 11.4 0 0 1 3.036-.924q1.629-.264 3.74-.264 2.068 0 3.652.176t3.3.704q1.761.528 3.036 1.672 1.32 1.144 2.068 2.86M1001.78.628c2.78 0 5.25.161 7.39.484q3.21.44 5.94 1.54t4.44 2.904c1.18 1.173 2.08 2.67 2.73 4.488.65 1.79.97 3.901.97 6.336 0 2.405-.3 4.488-.88 6.248-.56 1.76-1.38 3.256-2.47 4.488-1.05 1.203-2.46 2.185-4.22 2.948-1.73.733-3.7 1.261-5.9 1.584s-4.76.484-7.7.484q-10.907 0-15.88-3.96-4.928-4.004-4.928-12.364 0-7.744 5.06-11.44 5.058-3.74 15.448-3.74m.39 23.408c3.11 0 5.52-.63 7.22-1.892q2.55-1.892 2.55-5.764c0-2.493-.89-4.385-2.68-5.676-1.79-1.32-4.2-1.98-7.22-1.98-1.58 0-2.977.176-4.18.528q-1.804.484-2.992 1.496a6.4 6.4 0 0 0-1.716 2.42q-.572 1.409-.572 3.212 0 3.476 2.42 5.588 2.42 2.068 7.17 2.068m50.95-17.556h10.12V32h-10.12v-3.916q-3.885 3.872-11.22 3.872-5.94 0-9.33-1.276c-2.23-.88-3.89-2.479-4.97-4.796-.8-1.672-1.32-3.74-1.59-6.204q-.39-3.696-.39-11.176l.04-2.024h10.12v10.208q.045.572.18 1.628c.11.704.26 1.261.44 1.672.17.381.44.836.79 1.364q.57.748 1.32 1.144.795.396 1.98.704c.82.205 1.74.308 2.77.308 3.61 0 6.89-1.335 9.86-4.004zm33.58.044c4.16 0 7.52.836 10.07 2.508.21.117.32.19.35.22l-3.82 7.832c-.27-.147-.65-.323-1.15-.528-.5-.235-1.44-.543-2.81-.924-1.38-.381-2.69-.616-3.92-.704-1.09-.059-2.11 0-3.08.176s-1.73.367-2.29.572q-.84.264-1.89 1.012c-.68.47-1.1.792-1.28.968-.14.147-.48.47-1.01.968V32h-10.25V6.48h10.25v3.564q2.82-3.52 10.83-3.52m33.75-5.412h22.7c.59 0 1.15.015 1.67.044.53.03 1.27.132 2.2.308.97.147 1.84.367 2.6.66.79.264 1.63.69 2.51 1.276a8.1 8.1 0 0 1 2.2 2.024c.61.763 1.11 1.745 1.49 2.948.41 1.203.62 2.567.62 4.092 0 4.87-1.89 8.345-5.68 10.428L1157.1 32l-11.84-.044-5.28-7.26h-9.28V32h-10.25zm21.73 14.564c2.56 0 3.83-.968 3.83-2.904 0-1.76-1.33-2.64-4-2.64h-11.31v5.544zm17.42-9.152h10.25V32h-10.25zm0-6.952h10.25v4.972h-10.25zm41.13 1.628h10.21V32h-10.21v-2.728c-2.78 1.965-6.73 2.948-11.83 2.948-1.24 0-2.35-.044-3.35-.132-.99-.059-2.08-.19-3.25-.396-1.18-.235-2.22-.543-3.13-.924s-1.8-.91-2.68-1.584a9.8 9.8 0 0 1-2.2-2.332c-.56-.91-1.01-2.024-1.37-3.344-.35-1.35-.52-2.845-.52-4.488q0-3.08 1.32-5.5c.91-1.643 2.12-2.948 3.65-3.916 1.52-.997 3.24-1.745 5.15-2.244 1.93-.528 3.99-.792 6.16-.792 4.46 0 8.47.895 12.05 2.684zm0 20.108v-3.476c-.94-2.523-4.41-3.784-10.43-3.784h-1.1c-.2 0-.54.03-1.01.088q-.66.044-1.14.176c-.29.088-.66.22-1.1.396-.41.147-.76.352-1.06.616a9 9 0 0 0-.79.924c-.26.352-.47.792-.62 1.32a8.6 8.6 0 0 0-.17 1.76c0 3.49 2.54 5.236 7.61 5.236 2.85 0 4.97-.205 6.38-.616 1.44-.44 2.58-1.32 3.43-2.64m30.75-15.4c3.03 0 5.65.264 7.88.792s4.17 1.393 5.81 2.596 2.84 2.845 3.61 4.928c.76 2.053 1.02 4.532.79 7.436h-26.14q.225 1.188 2.16 1.936c1.29.499 3.23.748 5.81.748 2.26 0 4.5-.147 6.73-.44q3.39-.44 5.1-.88l1.67-.44 4.4 7.128q-.12.088-.48.264c-.23.088-.84.264-1.8.528-.94.264-2.01.499-3.22.704q-1.8.308-5.01.572c-2.14.147-4.49.22-7.04.22q-4.485 0-7.83-.616c-2.2-.41-4.01-.983-5.42-1.716-1.37-.733-2.49-1.657-3.34-2.772s-1.44-2.303-1.76-3.564q-.48-1.892-.48-4.4c0-4.107 1.55-7.304 4.66-9.592 3.14-2.288 7.77-3.432 13.9-3.432m.09 7.876c-1.61 0-2.99.117-4.13.352-1.15.235-1.98.543-2.51.924-.53.352-.91.704-1.15 1.056-.23.352-.35.704-.35 1.056h15.75c0-.968-.58-1.775-1.76-2.42q-1.71-.968-5.85-.968m41.05-7.26q6.255 0 10.08 2.508c.2.117.32.19.35.22l-3.83 7.832a11 11 0 0 0-1.14-.528q-.75-.352-2.82-.924c-1.38-.381-2.68-.616-3.91-.704-1.09-.059-2.12 0-3.08.176-.97.176-1.74.367-2.29.572q-.84.264-1.89 1.012c-.68.47-1.1.792-1.28.968-.15.147-.48.47-1.01.968V32h-10.25V6.48h10.25v3.564c1.87-2.347 5.48-3.52 10.82-3.52m27.23 9.592c3.03 0 5.5.073 7.44.22q2.955.22 5.1.704 2.205.485 3.3 1.452a5.3 5.3 0 0 1 1.63 2.332c.35.88.53 2.01.53 3.388 0 1.203-.09 2.215-.26 3.036-.15.792-.47 1.54-.97 2.244q-.75 1.012-1.98 1.628c-.79.41-1.88.763-3.26 1.056-1.35.293-2.95.499-4.79.616q-2.73.176-6.6.176c-8.95 0-14.22-.733-15.8-2.2l2.86-7.304c.7.47 2.44.865 5.19 1.188 2.76.293 5.47.44 8.14.44h1.94c2.43 0 4.03-.03 4.79-.088.77-.088 1.15-.308 1.15-.66 0-.968-2.85-1.452-8.54-1.452q-3.465 0-5.94-.176a30 30 0 0 1-4.53-.748q-2.07-.528-3.3-1.408a6.54 6.54 0 0 1-1.94-2.332q-.66-1.452-.66-3.432c0-.968.08-1.833.22-2.596q.27-1.145.84-1.98c.38-.587.81-1.085 1.28-1.496.47-.44 1.08-.807 1.84-1.1.8-.293 1.59-.528 2.38-.704.82-.176 1.83-.308 3.04-.396 1.2-.088 2.37-.147 3.52-.176 1.14-.059 2.52-.088 4.13-.088 3.58 0 6.49.117 8.71.352 2.26.235 3.88.513 4.84.836 1 .323 2.06.777 3.17 1.364l-3.17 6.996c-1.37-.499-3.44-.924-6.2-1.276q-4.095-.572-8.01-.572h-1.01q-3.645 0-4.71.132-1.05.132-1.05.792c.03.821 2.26 1.232 6.68 1.232m85.72 1.716c-.05.117-.14.279-.26.484q-.18.308-.84 1.232a26 26 0 0 1-1.45 1.848q-.75.924-2.07 2.2a23 23 0 0 1-2.77 2.288l7.39 6.116h-12.18l-2.69-2.112Q1364.94 32 1358.16 32q-9.06 0-13.86-3.74c-2.46-1.907-3.46-4.063-2.99-6.468q.75-3.915 6.51-6.6 1.23-.572 2.64-1.056c-2.14-1.173-3.58-2.699-4.31-4.576q-1.275-3.476 1.8-5.764c2.38-1.73 6.35-2.596 11.93-2.596 7.62 0 11.48 2.112 11.57 6.336 0 1.555-.59 2.904-1.76 4.048s-2.8 2.215-4.88 3.212l7.21 5.984c1-.88 1.81-1.863 2.42-2.948zm-23.89-10.12c0-.499-.5-.85-1.49-1.056q-1.5-.352-3 .044c-.99.235-1.49.66-1.49 1.276 0 .352.23.748.7 1.188s.96.792 1.45 1.056l.71.396c.03 0 .07-.015.13-.044.09-.059.23-.132.44-.22q.345-.176.66-.352.315-.22.66-.484c.23-.176.44-.352.62-.528.17-.176.32-.367.44-.572.11-.235.17-.47.17-.704m-9.24 14.476c0 .821.56 1.496 1.67 2.024 1.15.499 2.57.777 4.27.836q2.55.088 5.55-.484l-7.75-6.116c-2.49 1.232-3.74 2.479-3.74 3.74m88.49-21.076h11.75L1437.54 32h-13.42L1408.9 1.112h11.74l10.17 21.868zm25.89 4.796c3.03 0 5.65.264 7.88.792s4.17 1.393 5.81 2.596 2.84 2.845 3.61 4.928c.76 2.053 1.02 4.532.79 7.436h-26.14q.225 1.188 2.16 1.936c1.29.499 3.23.748 5.81.748 2.26 0 4.5-.147 6.73-.44q3.39-.44 5.1-.88l1.67-.44 4.4 7.128q-.12.088-.48.264c-.23.088-.84.264-1.8.528-.94.264-2.01.499-3.22.704q-1.8.308-5.01.572c-2.14.147-4.49.22-7.04.22q-4.485 0-7.83-.616c-2.2-.41-4.01-.983-5.42-1.716-1.37-.733-2.49-1.657-3.34-2.772s-1.44-2.303-1.76-3.564q-.48-1.892-.48-4.4c0-4.107 1.55-7.304 4.66-9.592 3.14-2.288 7.77-3.432 13.9-3.432m.09 7.876c-1.61 0-2.99.117-4.13.352-1.15.235-1.98.543-2.51.924-.53.352-.91.704-1.15 1.056-.23.352-.35.704-.35 1.056h15.75c0-.968-.58-1.775-1.76-2.42q-1.71-.968-5.85-.968m53.2-2.068c.71 1.584 1.13 3.623 1.28 6.116.17 2.464.26 6.512.26 12.144V32h-10.25V21.924q0-.484-.09-1.364c-.03-.587-.09-1.041-.17-1.364a7.7 7.7 0 0 0-.36-1.276q-.21-.792-.57-1.232c-.2-.323-.48-.66-.83-1.012a3.7 3.7 0 0 0-1.15-.836c-.44-.205-.97-.367-1.58-.484a8.8 8.8 0 0 0-2.03-.22q-2.805 0-4.53.836-1.665.792-3.12 2.288V32h-10.34V6.524h10.34v3.52c.94-.675 1.65-1.159 2.15-1.452q.795-.485 2.16-1.1c.94-.44 1.95-.748 3.04-.924 1.08-.176 2.33-.264 3.74-.264 1.37 0 2.59.059 3.65.176q1.575.176 3.3.704 1.755.528 3.03 1.672 1.32 1.144 2.07 2.86M1551.7 1.2h10.21V32h-10.21v-2.728c-2.78 1.965-6.73 2.948-11.83 2.948-1.24 0-2.35-.044-3.35-.132-1-.059-2.08-.19-3.25-.396-1.18-.235-2.22-.543-3.13-.924s-1.8-.91-2.68-1.584a9.6 9.6 0 0 1-2.2-2.332c-.56-.91-1.01-2.024-1.37-3.344-.35-1.35-.52-2.845-.52-4.488q0-3.08 1.32-5.5c.91-1.643 2.12-2.948 3.65-3.916 1.52-.997 3.24-1.745 5.15-2.244 1.93-.528 3.99-.792 6.16-.792 4.45 0 8.47.895 12.05 2.684zm0 20.108v-3.476c-.94-2.523-4.41-3.784-10.43-3.784h-1.1c-.2 0-.54.03-1.01.088q-.66.044-1.14.176c-.3.088-.66.22-1.1.396-.41.147-.76.352-1.06.616a9 9 0 0 0-.79.924c-.26.352-.47.792-.62 1.32a8.6 8.6 0 0 0-.17 1.76c0 3.49 2.54 5.236 7.61 5.236 2.85 0 4.97-.205 6.38-.616 1.44-.44 2.58-1.32 3.43-2.64m30.19-14.96c2.18 0 4.13.103 5.86.308q2.595.264 5.19 1.144c1.73.557 3.17 1.305 4.31 2.244s2.07 2.2 2.77 3.784c.71 1.555 1.06 3.388 1.06 5.5q0 3.608-1.32 6.16c-.85 1.701-2.13 3.05-3.83 4.048-1.7.968-3.67 1.672-5.9 2.112-2.22.41-4.85.616-7.87.616-3.08 0-5.74-.22-7.97-.66-2.22-.44-4.16-1.144-5.8-2.112-1.65-.997-2.88-2.332-3.7-4.004-.79-1.701-1.19-3.755-1.19-6.16 0-2.053.33-3.857.97-5.412q1.02-2.332 2.64-3.74 1.635-1.408 4.05-2.288c1.61-.587 3.27-.983 4.97-1.188q2.595-.352 5.76-.352m.36 18.7c2.58 0 4.54-.425 5.89-1.276q2.07-1.32 2.07-4.444c0-1.144-.26-2.112-.79-2.904a4.68 4.68 0 0 0-2.11-1.804 10.6 10.6 0 0 0-2.56-.792 12.6 12.6 0 0 0-4.66-.088q-1.005.132-2.07.528c-.7.264-1.32.601-1.85 1.012-.49.41-.92.953-1.27 1.628-.32.645-.49 1.379-.49 2.2 0 2.024.64 3.52 1.9 4.488q1.935 1.452 5.94 1.452m41.56-18.524c4.16 0 7.52.836 10.07 2.508.21.117.32.19.35.22l-3.82 7.832c-.27-.147-.65-.323-1.15-.528-.5-.235-1.44-.543-2.81-.924-1.38-.381-2.69-.616-3.92-.704-1.09-.059-2.11 0-3.08.176s-1.73.367-2.29.572q-.84.264-1.89 1.012c-.68.47-1.1.792-1.28.968-.14.147-.48.47-1.01.968V32h-10.25V6.48h10.25v3.564q2.82-3.52 10.83-3.52m27.23 9.592c3.02 0 5.5.073 7.43.22 1.97.147 3.67.381 5.11.704q2.19.485 3.3 1.452c.76.645 1.3 1.423 1.63 2.332.35.88.52 2.01.52 3.388 0 1.203-.08 2.215-.26 3.036-.15.792-.47 1.54-.97 2.244q-.75 1.012-1.98 1.628c-.79.41-1.88.763-3.25 1.056q-2.025.44-4.8.616-2.73.176-6.6.176c-8.95 0-14.21-.733-15.8-2.2l2.86-7.304c.71.47 2.44.865 5.2 1.188 2.75.293 5.47.44 8.14.44h1.93q3.66 0 4.8-.088 1.14-.132 1.14-.66c0-.968-2.84-1.452-8.53-1.452q-3.48 0-5.94-.176a30 30 0 0 1-4.54-.748q-2.055-.528-3.3-1.408a6.5 6.5 0 0 1-1.93-2.332q-.66-1.452-.66-3.432c0-.968.07-1.833.22-2.596.17-.763.45-1.423.83-1.98a7.4 7.4 0 0 1 1.28-1.496c.47-.44 1.09-.807 1.85-1.1q1.185-.44 2.37-.704c.83-.176 1.84-.308 3.04-.396s2.38-.147 3.52-.176q1.71-.088 4.14-.088c3.57 0 6.48.117 8.71.352 2.26.235 3.87.513 4.84.836 1 .323 2.05.777 3.17 1.364l-3.17 6.996q-2.07-.748-6.21-1.276a58 58 0 0 0-8-.572h-1.02c-2.43 0-4 .044-4.7.132-.71.088-1.06.352-1.06.792q.045 1.232 6.69 1.232M1714.83 6.568h10.21v22q0 2.816-.27 4.752c-.17 1.29-.51 2.523-1.01 3.696-.47 1.173-1.14 2.112-2.02 2.816q-1.32 1.056-3.48 1.848c-1.41.528-3.12.895-5.15 1.1q-2.985.307-7.17.264c0-.205-.01-1.203-.04-2.992v-5.148c1.4 0 2.53-.03 3.38-.088.88-.059 1.69-.205 2.42-.44.74-.205 1.28-.455 1.63-.748s.65-.748.88-1.364c.27-.587.43-1.247.49-1.98.08-.733.13-1.687.13-2.86zm0-6.952h10.21v4.928h-10.21zm31.21 6.732q3.255 0 5.85.308 2.595.264 5.19 1.144c1.73.557 3.17 1.305 4.31 2.244 1.15.939 2.07 2.2 2.77 3.784.71 1.555 1.06 3.388 1.06 5.5q0 3.608-1.32 6.16c-.85 1.701-2.13 3.05-3.83 4.048-1.7.968-3.67 1.672-5.89 2.112-2.23.41-4.86.616-7.88.616-3.08 0-5.74-.22-7.96-.66-2.23-.44-4.17-1.144-5.81-2.112-1.65-.997-2.88-2.332-3.7-4.004-.79-1.701-1.19-3.755-1.19-6.16 0-2.053.33-3.857.97-5.412q1.02-2.332 2.64-3.74 1.635-1.408 4.05-2.288c1.61-.587 3.27-.983 4.97-1.188 1.73-.235 3.65-.352 5.77-.352m.35 18.7c2.58 0 4.54-.425 5.89-1.276q2.07-1.32 2.07-4.444c0-1.144-.26-2.112-.79-2.904a4.68 4.68 0 0 0-2.11-1.804q-1.275-.571-2.55-.792-1.245-.264-2.64-.264c-.68 0-1.35.059-2.03.176q-1.005.132-2.07.528c-.7.264-1.32.601-1.84 1.012-.5.41-.93.953-1.28 1.628q-.48.968-.48 2.2 0 3.036 1.89 4.488 1.935 1.452 5.94 1.452m21.39-18.524h10.25V32h-10.25zm0-6.952h10.25v4.972h-10.25zm46.71 12.144c.7 1.584 1.13 3.623 1.28 6.116.17 2.464.26 6.512.26 12.144V32h-10.25V21.924q0-.484-.09-1.364-.045-.88-.18-1.364c-.05-.352-.17-.777-.35-1.276q-.21-.792-.57-1.232-.3-.484-.84-1.012-.48-.528-1.14-.836c-.44-.205-.97-.367-1.58-.484a8.8 8.8 0 0 0-2.03-.22c-1.87 0-3.39.279-4.53.836-1.11.528-2.16 1.29-3.12 2.288V32h-10.34V6.524h10.34v3.52c.94-.675 1.65-1.159 2.15-1.452q.795-.485 2.16-1.1 1.41-.66 3.03-.924c1.09-.176 2.34-.264 3.74-.264q2.07 0 3.66.176 1.575.176 3.3.704 1.755.528 3.03 1.672 1.32 1.144 2.07 2.86M1859.78.628c2.78 0 5.25.161 7.39.484q3.21.44 5.94 1.54t4.44 2.904c1.18 1.173 2.08 2.67 2.73 4.488.65 1.79.97 3.901.97 6.336 0 2.405-.3 4.488-.88 6.248-.56 1.76-1.38 3.256-2.47 4.488-1.05 1.203-2.46 2.185-4.22 2.948-1.73.733-3.7 1.261-5.9 1.584s-4.76.484-7.7.484c-7.27 0-12.57-1.32-15.88-3.96-3.29-2.67-4.93-6.79-4.93-12.364 0-5.163 1.69-8.976 5.06-11.44 3.38-2.493 8.52-3.74 15.45-3.74m.39 23.408c3.11 0 5.52-.63 7.22-1.892q2.55-1.892 2.55-5.764c0-2.493-.89-4.385-2.68-5.676-1.79-1.32-4.2-1.98-7.22-1.98-1.58 0-2.98.176-4.18.528-1.2.323-2.2.821-2.99 1.496a6.44 6.44 0 0 0-1.72 2.42q-.57 1.409-.57 3.212c0 2.317.81 4.18 2.42 5.588q2.415 2.068 7.17 2.068m50.95-17.556h10.12V32h-10.12v-3.916q-3.885 3.872-11.22 3.872-5.94 0-9.33-1.276c-2.23-.88-3.89-2.479-4.97-4.796-.8-1.672-1.32-3.74-1.59-6.204q-.39-3.696-.39-11.176l.04-2.024h10.12v10.208q.045.572.18 1.628c.11.704.26 1.261.44 1.672.17.381.44.836.79 1.364q.57.748 1.32 1.144.795.396 1.98.704c.82.205 1.74.308 2.77.308 3.61 0 6.89-1.335 9.86-4.004zm33.58.044c4.16 0 7.52.836 10.07 2.508.21.117.32.19.35.22l-3.82 7.832c-.27-.147-.65-.323-1.15-.528-.5-.235-1.44-.543-2.81-.924-1.38-.381-2.69-.616-3.92-.704-1.09-.059-2.11 0-3.08.176s-1.73.367-2.29.572q-.84.264-1.89 1.012c-.68.47-1.1.792-1.28.968-.14.147-.48.47-1.01.968V32h-10.25V6.48h10.25v3.564q2.82-3.52 10.83-3.52m33.75-5.412h22.7c.59 0 1.15.015 1.67.044.53.03 1.27.132 2.2.308.97.147 1.84.367 2.6.66.79.264 1.63.69 2.51 1.276a8.1 8.1 0 0 1 2.2 2.024c.61.763 1.11 1.745 1.49 2.948.41 1.203.62 2.567.62 4.092 0 4.87-1.89 8.345-5.68 10.428L2015.1 32l-11.84-.044-5.28-7.26h-9.28V32h-10.25zm21.73 14.564c2.56 0 3.83-.968 3.83-2.904 0-1.76-1.33-2.64-4-2.64h-11.31v5.544zm17.42-9.152h10.25V32h-10.25zm0-6.952h10.25v4.972h-10.25zm41.13 1.628h10.21V32h-10.21v-2.728c-2.78 1.965-6.73 2.948-11.83 2.948-1.24 0-2.35-.044-3.35-.132-.99-.059-2.08-.19-3.25-.396-1.18-.235-2.22-.543-3.13-.924s-1.8-.91-2.68-1.584a9.8 9.8 0 0 1-2.2-2.332c-.56-.91-1.01-2.024-1.37-3.344-.35-1.35-.52-2.845-.52-4.488q0-3.08 1.32-5.5c.91-1.643 2.12-2.948 3.65-3.916 1.52-.997 3.24-1.745 5.15-2.244 1.93-.528 3.99-.792 6.16-.792 4.46 0 8.47.895 12.05 2.684zm0 20.108v-3.476c-.94-2.523-4.41-3.784-10.43-3.784h-1.1c-.2 0-.54.03-1.01.088q-.66.044-1.14.176c-.29.088-.66.22-1.1.396-.41.147-.76.352-1.06.616a9 9 0 0 0-.79.924c-.26.352-.47.792-.62 1.32a8.6 8.6 0 0 0-.17 1.76c0 3.49 2.54 5.236 7.61 5.236 2.85 0 4.97-.205 6.38-.616 1.44-.44 2.58-1.32 3.43-2.64m30.75-15.4c3.03 0 5.65.264 7.88.792s4.17 1.393 5.81 2.596 2.84 2.845 3.61 4.928c.76 2.053 1.02 4.532.79 7.436h-26.14q.225 1.188 2.16 1.936c1.29.499 3.23.748 5.81.748 2.26 0 4.5-.147 6.73-.44q3.39-.44 5.1-.88l1.67-.44 4.4 7.128q-.12.088-.48.264c-.23.088-.84.264-1.8.528-.94.264-2.01.499-3.22.704q-1.8.308-5.01.572c-2.14.147-4.49.22-7.04.22q-4.485 0-7.83-.616c-2.2-.41-4.01-.983-5.42-1.716-1.37-.733-2.49-1.657-3.34-2.772s-1.44-2.303-1.76-3.564q-.48-1.892-.48-4.4c0-4.107 1.55-7.304 4.66-9.592 3.14-2.288 7.77-3.432 13.9-3.432m.09 7.876c-1.61 0-2.99.117-4.13.352-1.15.235-1.98.543-2.51.924-.53.352-.91.704-1.15 1.056-.23.352-.35.704-.35 1.056h15.75c0-.968-.58-1.775-1.76-2.42q-1.71-.968-5.85-.968m41.05-7.26q6.255 0 10.08 2.508c.2.117.32.19.35.22l-3.83 7.832a11 11 0 0 0-1.14-.528q-.75-.352-2.82-.924c-1.38-.381-2.68-.616-3.91-.704-1.09-.059-2.12 0-3.08.176-.97.176-1.74.367-2.29.572q-.84.264-1.89 1.012c-.68.47-1.1.792-1.28.968-.15.147-.48.47-1.01.968V32h-10.25V6.48h10.25v3.564c1.87-2.347 5.48-3.52 10.82-3.52m27.23 9.592c3.03 0 5.5.073 7.44.22q2.955.22 5.1.704 2.205.485 3.3 1.452a5.3 5.3 0 0 1 1.63 2.332c.35.88.53 2.01.53 3.388 0 1.203-.09 2.215-.26 3.036-.15.792-.47 1.54-.97 2.244q-.75 1.012-1.98 1.628c-.79.41-1.88.763-3.26 1.056-1.35.293-2.95.499-4.79.616q-2.73.176-6.6.176c-8.95 0-14.22-.733-15.8-2.2l2.86-7.304c.7.47 2.44.865 5.19 1.188 2.76.293 5.47.44 8.14.44h1.94c2.43 0 4.03-.03 4.79-.088.77-.088 1.15-.308 1.15-.66 0-.968-2.85-1.452-8.54-1.452q-3.465 0-5.94-.176a30 30 0 0 1-4.53-.748q-2.07-.528-3.3-1.408a6.54 6.54 0 0 1-1.94-2.332q-.66-1.452-.66-3.432c0-.968.08-1.833.22-2.596q.27-1.145.84-1.98c.38-.587.81-1.085 1.28-1.496.47-.44 1.08-.807 1.84-1.1.8-.293 1.59-.528 2.38-.704.82-.176 1.83-.308 3.04-.396 1.2-.088 2.37-.147 3.52-.176 1.14-.059 2.52-.088 4.13-.088 3.58 0 6.49.117 8.71.352 2.26.235 3.88.513 4.84.836 1 .323 2.06.777 3.17 1.364l-3.17 6.996c-1.37-.499-3.44-.924-6.2-1.276q-4.095-.572-8.01-.572h-1.01q-3.645 0-4.71.132-1.05.132-1.05.792c.03.821 2.26 1.232 6.68 1.232m85.72 1.716c-.05.117-.14.279-.26.484q-.18.308-.84 1.232a26 26 0 0 1-1.45 1.848q-.75.924-2.07 2.2a23 23 0 0 1-2.77 2.288l7.39 6.116h-12.18l-2.69-2.112Q2222.94 32 2216.16 32q-9.06 0-13.86-3.74c-2.46-1.907-3.46-4.063-2.99-6.468q.75-3.915 6.51-6.6 1.23-.572 2.64-1.056c-2.14-1.173-3.58-2.699-4.31-4.576q-1.275-3.476 1.8-5.764c2.38-1.73 6.35-2.596 11.93-2.596 7.62 0 11.48 2.112 11.57 6.336 0 1.555-.59 2.904-1.76 4.048s-2.8 2.215-4.88 3.212l7.21 5.984c1-.88 1.81-1.863 2.42-2.948zm-23.89-10.12c0-.499-.5-.85-1.49-1.056q-1.5-.352-3 .044c-.99.235-1.49.66-1.49 1.276 0 .352.23.748.7 1.188s.96.792 1.45 1.056l.71.396c.03 0 .07-.015.13-.044.09-.059.23-.132.44-.22q.345-.176.66-.352.315-.22.66-.484c.23-.176.44-.352.62-.528.17-.176.32-.367.44-.572.11-.235.17-.47.17-.704m-9.24 14.476c0 .821.56 1.496 1.67 2.024 1.15.499 2.57.777 4.27.836q2.55.088 5.55-.484l-7.75-6.116c-2.49 1.232-3.74 2.479-3.74 3.74m88.49-21.076h11.75L2295.54 32h-13.42L2266.9 1.112h11.74l10.17 21.868zm25.89 4.796c3.03 0 5.65.264 7.88.792s4.17 1.393 5.81 2.596 2.84 2.845 3.61 4.928c.76 2.053 1.02 4.532.79 7.436h-26.14q.225 1.188 2.16 1.936c1.29.499 3.23.748 5.81.748 2.26 0 4.5-.147 6.73-.44q3.39-.44 5.1-.88l1.67-.44 4.4 7.128q-.12.088-.48.264c-.23.088-.84.264-1.8.528-.94.264-2.01.499-3.22.704q-1.8.308-5.01.572c-2.14.147-4.49.22-7.04.22q-4.485 0-7.83-.616c-2.2-.41-4.01-.983-5.42-1.716-1.37-.733-2.49-1.657-3.34-2.772s-1.44-2.303-1.76-3.564q-.48-1.892-.48-4.4c0-4.107 1.55-7.304 4.66-9.592 3.14-2.288 7.77-3.432 13.9-3.432m.09 7.876c-1.61 0-2.99.117-4.13.352-1.15.235-1.98.543-2.51.924-.53.352-.91.704-1.15 1.056-.23.352-.35.704-.35 1.056h15.75c0-.968-.58-1.775-1.76-2.42q-1.71-.968-5.85-.968m53.2-2.068c.71 1.584 1.13 3.623 1.28 6.116.17 2.464.26 6.512.26 12.144V32h-10.25V21.924q0-.484-.09-1.364c-.03-.587-.09-1.041-.17-1.364a7.7 7.7 0 0 0-.36-1.276q-.21-.792-.57-1.232c-.2-.323-.48-.66-.83-1.012a3.7 3.7 0 0 0-1.15-.836c-.44-.205-.97-.367-1.58-.484a8.8 8.8 0 0 0-2.03-.22q-2.805 0-4.53.836-1.665.792-3.12 2.288V32h-10.34V6.524h10.34v3.52c.94-.675 1.65-1.159 2.15-1.452q.795-.485 2.16-1.1c.94-.44 1.95-.748 3.04-.924 1.08-.176 2.33-.264 3.74-.264 1.37 0 2.59.059 3.65.176q1.575.176 3.3.704 1.755.528 3.03 1.672 1.32 1.144 2.07 2.86M2409.7 1.2h10.21V32h-10.21v-2.728c-2.78 1.965-6.73 2.948-11.83 2.948-1.24 0-2.35-.044-3.35-.132-1-.059-2.08-.19-3.25-.396-1.18-.235-2.22-.543-3.13-.924s-1.8-.91-2.68-1.584a9.6 9.6 0 0 1-2.2-2.332c-.56-.91-1.01-2.024-1.37-3.344-.35-1.35-.52-2.845-.52-4.488q0-3.08 1.32-5.5c.91-1.643 2.12-2.948 3.65-3.916 1.52-.997 3.24-1.745 5.15-2.244 1.93-.528 3.99-.792 6.16-.792 4.45 0 8.47.895 12.05 2.684zm0 20.108v-3.476c-.94-2.523-4.41-3.784-10.43-3.784h-1.1c-.2 0-.54.03-1.01.088q-.66.044-1.14.176c-.3.088-.66.22-1.1.396-.41.147-.76.352-1.06.616a9 9 0 0 0-.79.924c-.26.352-.47.792-.62 1.32a8.6 8.6 0 0 0-.17 1.76c0 3.49 2.54 5.236 7.61 5.236 2.85 0 4.97-.205 6.38-.616 1.44-.44 2.58-1.32 3.43-2.64m30.19-14.96c2.18 0 4.13.103 5.86.308q2.595.264 5.19 1.144c1.73.557 3.17 1.305 4.31 2.244s2.07 2.2 2.77 3.784c.71 1.555 1.06 3.388 1.06 5.5q0 3.608-1.32 6.16c-.85 1.701-2.13 3.05-3.83 4.048-1.7.968-3.67 1.672-5.9 2.112-2.22.41-4.85.616-7.87.616-3.08 0-5.74-.22-7.97-.66-2.22-.44-4.16-1.144-5.8-2.112-1.65-.997-2.88-2.332-3.7-4.004-.79-1.701-1.19-3.755-1.19-6.16 0-2.053.33-3.857.97-5.412q1.02-2.332 2.64-3.74 1.635-1.408 4.05-2.288c1.61-.587 3.27-.983 4.97-1.188q2.595-.352 5.76-.352m.36 18.7c2.58 0 4.54-.425 5.89-1.276q2.07-1.32 2.07-4.444c0-1.144-.26-2.112-.79-2.904a4.68 4.68 0 0 0-2.11-1.804 10.6 10.6 0 0 0-2.56-.792 12.6 12.6 0 0 0-4.66-.088q-1.005.132-2.07.528c-.7.264-1.32.601-1.85 1.012-.49.41-.92.953-1.27 1.628-.32.645-.49 1.379-.49 2.2 0 2.024.64 3.52 1.9 4.488q1.935 1.452 5.94 1.452m41.56-18.524c4.16 0 7.52.836 10.07 2.508.21.117.32.19.35.22l-3.82 7.832c-.27-.147-.65-.323-1.15-.528-.5-.235-1.44-.543-2.81-.924-1.38-.381-2.69-.616-3.92-.704-1.09-.059-2.11 0-3.08.176s-1.73.367-2.29.572q-.84.264-1.89 1.012c-.68.47-1.1.792-1.28.968-.14.147-.48.47-1.01.968V32h-10.25V6.48h10.25v3.564q2.82-3.52 10.83-3.52m27.23 9.592c3.02 0 5.5.073 7.43.22 1.97.147 3.67.381 5.11.704q2.19.485 3.3 1.452c.76.645 1.3 1.423 1.63 2.332.35.88.52 2.01.52 3.388 0 1.203-.08 2.215-.26 3.036-.15.792-.47 1.54-.97 2.244q-.75 1.012-1.98 1.628c-.79.41-1.88.763-3.25 1.056q-2.025.44-4.8.616-2.73.176-6.6.176c-8.95 0-14.21-.733-15.8-2.2l2.86-7.304c.71.47 2.44.865 5.2 1.188 2.75.293 5.47.44 8.14.44h1.93q3.66 0 4.8-.088 1.14-.132 1.14-.66c0-.968-2.84-1.452-8.53-1.452q-3.48 0-5.94-.176a30 30 0 0 1-4.54-.748q-2.055-.528-3.3-1.408a6.5 6.5 0 0 1-1.93-2.332q-.66-1.452-.66-3.432c0-.968.07-1.833.22-2.596.17-.763.45-1.423.83-1.98a7.4 7.4 0 0 1 1.28-1.496c.47-.44 1.09-.807 1.85-1.1q1.185-.44 2.37-.704c.83-.176 1.84-.308 3.04-.396s2.38-.147 3.52-.176q1.71-.088 4.14-.088c3.57 0 6.48.117 8.71.352 2.26.235 3.87.513 4.84.836 1 .323 2.05.777 3.17 1.364l-3.17 6.996q-2.07-.748-6.21-1.276a58 58 0 0 0-8-.572h-1.02c-2.43 0-4 .044-4.7.132-.71.088-1.06.352-1.06.792q.045 1.232 6.69 1.232"/></g><defs><clipPath id="a"><path fill="#fff" d="M-19.5 0h1767v43h-1767z"/></clipPath></defs></svg>