<svg xmlns="http://www.w3.org/2000/svg" width="40" height="40" fill="none"><path stroke="#fff" stroke-linecap="round" stroke-linejoin="round" stroke-width="2.456" d="m13.719 20 3.946 3.962 7.909-7.925"/><path stroke="#fff" stroke-linecap="round" stroke-linejoin="round" stroke-width="2.456" d="M17.608 4.363c1.13-.966 2.98-.966 4.126 0l2.587 2.227c.492.426 1.409.77 2.064.77h2.783a3.173 3.173 0 0 1 3.16 3.16v2.783c0 .639.344 1.572.77 2.064l2.227 2.587c.966 1.13.966 2.98 0 4.126l-2.227 2.587c-.426.491-.77 1.408-.77 2.063v2.784a3.173 3.173 0 0 1-3.16 3.16h-2.783c-.639 0-1.572.344-2.064.77l-2.587 2.226c-1.13.966-2.98.966-4.126 0l-2.587-2.227c-.491-.425-1.408-.77-2.063-.77h-2.833a3.173 3.173 0 0 1-3.16-3.16v-2.8c0-.638-.344-1.555-.753-2.046l-2.21-2.604c-.95-1.13-.95-2.963 0-4.093l2.21-2.603c.41-.492.753-1.409.753-2.047v-2.816a3.173 3.173 0 0 1 3.16-3.16h2.833c.639 0 1.572-.345 2.063-.77z"/></svg>