<svg xmlns="http://www.w3.org/2000/svg" width="24" height="24" fill="none"><path fill="#F8A307" d="M2.752 7.575v-.012a6.187 6.187 0 0 1 10.55-4.388 4.125 4.125 0 0 1 5.893 4.393 1.376 1.376 0 0 1 1.229 1.595q-.933 5.608-4.61 7.1v.925a2.06 2.06 0 0 1-2.062 2.062h-5.5a2.06 2.06 0 0 1-2.062-2.062v-.924q-3.676-1.494-4.61-7.1a1.375 1.375 0 0 1 1.172-1.588zm1.375-.012h1.375a3.438 3.438 0 0 1 6.875 0h1.375a4.813 4.813 0 1 0-9.625 0m2.75 0h4.125a2.062 2.062 0 0 0-4.125 0m9.441 0h1.473a2.755 2.755 0 0 0-3.599-3.274c.244.39.444.811.598 1.252a1.378 1.378 0 0 1 1.528 2.022M14.44 16.5H7.565v.688a.687.687 0 0 0 .687.687h5.5a.687.687 0 0 0 .688-.687zm-7.36-1.375h7.844c2.18-.701 3.561-2.684 4.144-6.187H2.937C3.52 12.44 4.9 14.424 7.08 15.125"/></svg>