<svg xmlns="http://www.w3.org/2000/svg" width="40" height="40" fill="none"><path stroke="#fff" stroke-linecap="round" stroke-linejoin="round" stroke-width="2.456" d="m13.719 20 3.946 3.963 7.909-7.925"/><path stroke="#fff" stroke-linecap="round" stroke-linejoin="round" stroke-width="2.456" d="M17.6 4.362c1.13-.966 2.98-.966 4.127 0l2.587 2.227c.49.426 1.408.77 2.063.77h2.783a3.173 3.173 0 0 1 3.16 3.16v2.784c0 .638.344 1.571.77 2.063l2.227 2.587c.966 1.13.966 2.98 0 4.126l-2.227 2.587c-.426.491-.77 1.408-.77 2.063v2.784a3.173 3.173 0 0 1-3.16 3.16h-2.783c-.639 0-1.572.344-2.063.77l-2.587 2.226c-1.13.967-2.98.967-4.127 0l-2.587-2.226c-.491-.426-1.408-.77-2.063-.77h-2.833a3.173 3.173 0 0 1-3.16-3.16v-2.8c0-.639-.344-1.556-.753-2.047l-2.21-2.603c-.95-1.13-.95-2.964 0-4.094l2.21-2.603c.41-.492.753-1.409.753-2.047v-2.817a3.173 3.173 0 0 1 3.16-3.16h2.833c.639 0 1.572-.344 2.063-.77z"/></svg>