<svg xmlns="http://www.w3.org/2000/svg" width="1440" height="709" fill="none"><path fill="#F08F00" d="M132.273 107.392C71.911 107.392-29.223 35.797-72.245 0H-106v628.692c37.727 64.883 371.309 42.51 498.388 0 127.08-42.509 307.77 29.086 464.634 69.358 156.858 40.272 266.068-42.509 391.168-55.933 100.07-10.74 242.9 32.814 301.81 55.933V129.766c-31.77 0-51.63-40.272-133.04-76.07s-178.7-17.899-240.25-11.186c-61.56 6.712-319.688 91.73-397.127 87.256S588.964 46.984 501.597 24.611s-293.87 82.781-369.324 82.781"/></svg>