<svg width="1440" height="213" viewBox="0 0 1440 213" fill="none" xmlns="http://www.w3.org/2000/svg">
<path d="M163.978 32.2631C109.011 32.2631 16.9153 10.7544 -22.2614 0H-53V188.874C-18.6451 208.366 285.125 201.645 400.847 188.874C516.568 176.103 681.11 197.612 823.954 209.71C966.799 221.809 1066.25 196.94 1180.16 192.907C1271.29 189.68 1401.36 202.765 1455 209.71V38.9846C1426.07 38.9846 1407.99 26.8859 1333.85 16.1316C1259.72 5.37719 1171.12 10.7544 1115.07 12.7708C1059.01 14.7873 823.954 40.3289 753.436 38.9846C682.918 37.6403 579.854 14.1151 500.295 7.39364C420.736 0.672149 232.688 32.2631 163.978 32.2631Z" fill="#F08F00"/>
</svg>
