<svg xmlns="http://www.w3.org/2000/svg" width="1440" height="213" fill="none"><path fill="#F08F00" d="M163.978 32.263C109.011 32.263 16.915 10.754-22.262 0H-53v188.874c34.355 19.492 338.125 12.771 453.847 0s280.263 8.738 423.107 20.836c142.845 12.099 242.296-12.77 356.206-16.803 91.13-3.227 221.2 9.858 274.84 16.803V38.985c-28.93 0-47.01-12.1-121.15-22.853-74.13-10.755-162.73-5.378-218.78-3.361-56.06 2.016-291.116 27.558-361.634 26.214S579.854 14.115 500.295 7.394c-79.559-6.722-267.607 24.87-336.317 24.87"/></svg>