<svg width="1440" height="709" viewBox="0 0 1440 709" fill="none" xmlns="http://www.w3.org/2000/svg">
<path d="M132.273 107.392C71.9108 107.392 -29.223 35.7974 -72.2446 0H-106V628.692C-68.2734 693.575 265.309 671.202 392.388 628.692C519.468 586.183 700.158 657.778 857.022 698.05C1013.88 738.322 1123.09 655.541 1248.19 642.117C1348.26 631.377 1491.09 674.931 1550 698.05V129.766C1518.23 129.766 1498.37 89.4936 1416.96 53.6962C1335.55 17.8987 1238.26 35.7974 1176.71 42.5095C1115.15 49.2215 857.022 134.24 779.583 129.766C702.144 125.291 588.964 46.9841 501.597 24.6107C414.23 2.23734 207.727 107.392 132.273 107.392Z" fill="#F08F00"/>
</svg>
